# xmcd
#
# Track frame offsets:
#	150
#	23782
#	42359
#	65339
#	92039
#	114296
#	135536
#	155154
#	176074
#	194250
#	210051
#	227213
#	248702
#
# Disc length: 3616 seconds
#
# Revision: 2
# Processed by: cddbd v1.4PL0 Copyright (c) Steve Scherf et al.
# Submitted via: EZCDDA 4.3.2
#
DISCID=a80e1e0d
DTITLE=амтымгс баядгс - ха йамы диайопес
DYEAR=1900
DGENRE=
TTITLE0=ха йамы диайопес
TTITLE1=хекы ма жуцы
TTITLE2=ьелата соу кееи
TTITLE3=поу ма ангцы
TTITLE4=йати тетоиес мувтес
TTITLE5=баядаягс
TTITLE6=сто текос тоу аиыма
TTITLE7=пгяа циа ма ды ти йамеис
TTITLE8=сам ма ежуцес сглеяа
TTITLE9=йаимоуяиа леяа
TTITLE10=то дийо лоу то йаяаби
TTITLE11=сйиес йаи ьихуяои
TTITLE12=ти ма жтаиеи
EXTD=
EXTT0=
EXTT1=
EXTT2=
EXTT3=
EXTT4=
EXTT5=
EXTT6=
EXTT7=
EXTT8=
EXTT9=
EXTT10=
EXTT11=
EXTT12=
PLAYORDER=
